<svg id="Layer_1" data-name="Layer 1" xmlns="http://www.w3.org/2000/svg" viewBox="0 0 79.48 93.82"><defs><style>.cls-1,.cls-2,.cls-3,.cls-4{fill:none;stroke:#648de5;}.cls-1,.cls-2{stroke-miterlimit:10;}.cls-1,.cls-3{stroke-width:3px;}.cls-2,.cls-4{stroke-width:2px;}.cls-3,.cls-4{stroke-linejoin:round;}</style></defs><rect class="cls-1" x="1.5" y="47.21" width="76.48" height="45.11" rx="2.44"/><line class="cls-1" x1="1.5" y1="86.53" x2="77.98" y2="86.53"/><circle class="cls-2" cx="39.74" cy="68.76" r="2.22"/><path class="cls-1" d="M24.72,49.37A20.49,20.49,0,0,1,35.17,35.94,30.9,30.9,0,0,1,49.6,32.59c2.76-.05,9.1-.16,15.21,3.08a20,20,0,0,1,10.47,13.7" transform="translate(-10.26 -2.16)"/><path class="cls-3" d="M50,38.7c4.06,0,7.69-2.12,9-5.23a33.08,33.08,0,0,0-17.9.17C42.39,36.67,46,38.71,50,38.7Z" transform="translate(-10.26 -2.16)"/><path class="cls-3" d="M54.62,49.37H45.38l2.56-10.91A11.34,11.34,0,0,0,50,38.7a11.52,11.52,0,0,0,2.08-.14Z" transform="translate(-10.26 -2.16)"/><circle class="cls-3" cx="39.74" cy="15.83" r="14.33"/><path class="cls-4" d="M58.67,6.58a41.18,41.18,0,0,1-10.27,5.1,40.81,40.81,0,0,1-12.1,2.09" transform="translate(-10.26 -2.16)"/><path class="cls-4" d="M52.91,10.18a28,28,0,0,0,4.9,2.52,27,27,0,0,0,6,1.61" transform="translate(-10.26 -2.16)"/></svg>