<svg id="Layer_1" data-name="Layer 1" xmlns="http://www.w3.org/2000/svg" viewBox="0 0 82.71 88.13"><defs><style>.cls-1{fill:none;stroke:#648de5;stroke-linecap:round;stroke-linejoin:round;stroke-width:3px;}</style></defs><path class="cls-1" d="M82,7.44A12.93,12.93,0,0,0,78,10.22a8.16,8.16,0,0,0-.76.87,10,10,0,0,0-1.68,3.22l-.06.2c0,.12-.06.24-.08.35a10.77,10.77,0,0,0-.19,2.58c0,.48,0,1,0,1.45v0q.39,36.82.79,73.64H10.15V18.13a11.28,11.28,0,0,1,3.18-7.5A11.09,11.09,0,0,1,19.47,7.5q23.36.15,47,0Q74.25,7.5,82,7.44Z" transform="translate(-8.65 -5.94)"/><path class="cls-1" d="M89.81,18.69l-14.54.23v0c0-.48,0-1,0-1.45a10.77,10.77,0,0,1,.19-2.58c0-.11,0-.23.08-.35l.06-.2a10,10,0,0,1,1.68-3.22,10.76,10.76,0,0,1,.76-.87A12.93,12.93,0,0,1,82,7.44,6.72,6.72,0,0,1,85.17,8C88.37,9.51,90.18,13.75,89.81,18.69Z" transform="translate(-8.65 -5.94)"/><path class="cls-1" d="M17.76,7.56" transform="translate(-8.65 -5.94)"/><rect class="cls-1" x="7.03" y="17.28" width="14.68" height="14.68"/><rect class="cls-1" x="7.03" y="64.26" width="14.68" height="14.68"/><rect class="cls-1" x="7.03" y="40.77" width="14.68" height="14.68"/><line class="cls-1" x1="27.44" y1="17.28" x2="58.84" y2="17.28"/><line class="cls-1" x1="27.44" y1="23.53" x2="43.14" y2="23.53"/><line class="cls-1" x1="51.57" y1="23.53" x2="58.84" y2="23.53"/><line class="cls-1" x1="27.44" y1="30.43" x2="46.84" y2="30.43"/><line class="cls-1" x1="27.44" y1="40.77" x2="39.06" y2="40.77"/><line class="cls-1" x1="27.44" y1="47.02" x2="58.33" y2="47.02"/><line class="cls-1" x1="27.44" y1="53.53" x2="52.97" y2="53.53"/><line class="cls-1" x1="27.44" y1="64.26" x2="55.78" y2="64.26"/><line class="cls-1" x1="27.44" y1="69.87" x2="31.65" y2="69.87"/><line class="cls-1" x1="27.44" y1="77.92" x2="45.06" y2="77.92"/><line class="cls-1" x1="49.52" y1="69.87" x2="55.78" y2="69.87"/></svg>