<svg id="Layer_2" data-name="Layer 2" xmlns="http://www.w3.org/2000/svg" viewBox="0 0 280.49 189.12"><defs><style>.cls-1,.cls-2{fill:none;stroke:#ddd;stroke-width:6px;}.cls-1{stroke-miterlimit:10;}.cls-2{stroke-linecap:round;stroke-linejoin:round;}</style></defs><rect class="cls-1" x="16.5" y="4.23" width="31.91" height="94.97" rx="4.99" transform="translate(19.02 -7.84) rotate(19.4)"/><circle class="cls-1" cx="22.04" cy="81.28" r="7.4"/><rect class="cls-1" x="232.08" y="4.23" width="31.91" height="94.97" rx="4.99" transform="translate(499.16 18.1) rotate(160.6)"/><circle class="cls-1" cx="258.45" cy="81.28" r="7.4"/><path class="cls-2" d="M220.33,21.09a83.41,83.41,0,0,1-33.58,4.72c-21.95-1.56-31.31-11.65-50.38-10.38-12.24.82-22.06,5.89-28.77,10.38A129.35,129.35,0,0,1,89.74,44C86.6,46.56,83,49.28,82,54.07c-.69,3.28-.21,7.89,2.65,10.72,5.85,5.79,18.11.75,19.92,0,7.8-3.21,7-6.51,16.51-10.72a42.13,42.13,0,0,1,14.81-3.74,38.92,38.92,0,0,1,11.43,1.08l87.29,67.51c.44.81,3.59,6.88.85,13.11-2.63,6-9.6,9.62-17,8.51.17.82,1.62,8.48-3.57,14.13-4.69,5.09-12.81,6.41-19.75,2.89a13.79,13.79,0,0,1-20.59,15.15l-13.28-7.32a14.21,14.21,0,0,1,1.7,9.53,13.9,13.9,0,0,1-9.36,10.55,14.37,14.37,0,0,1-10.55-.85l-14.3-9.87"/><line class="cls-2" x1="218.41" y1="140.54" x2="179.09" y2="118.07"/><line class="cls-2" x1="195.09" y1="157.56" x2="160.88" y2="137.3"/><line class="cls-2" x1="161.22" y1="165.39" x2="141.64" y2="154.16"/><path class="cls-2" d="M60.06,21.36a64.89,64.89,0,0,0,19.12,7.86,64.94,64.94,0,0,0,24.75.92"/><path class="cls-2" d="M34.46,94.05h0c.33-.31,7.63,6.41,13.73,13.14,0,0,2.16,2.38,12.42,15.32h0"/><rect class="cls-2" x="75.47" y="126.56" width="17.69" height="30.44" rx="8.84" transform="translate(97.69 -22.63) rotate(35.39)"/><rect class="cls-2" x="58.71" y="117.07" width="15.28" height="26.15" rx="7.64" transform="translate(87.63 -14.38) rotate(35.39)"/><rect class="cls-2" x="93.57" y="139.72" width="17.69" height="30.44" rx="8.84" transform="translate(96.17 340.56) rotate(-144.61)"/><rect class="cls-2" x="112.74" y="154.51" width="15.28" height="26.15" rx="7.64" transform="translate(121.46 373.91) rotate(-144.61)"/><path class="cls-2" d="M225.14,111.62c3.08-2.37,6.29-5,9.57-8,4.09-3.72,7.69-7.39,10.85-10.88"/></svg>