<svg xmlns="http://www.w3.org/2000/svg" xmlns:xlink="http://www.w3.org/1999/xlink" viewBox="0 0 200.39 64.36"><defs><style>.cls-1{fill:#403d52;}.cls-2{fill:none;stroke-linecap:round;stroke-miterlimit:10;stroke-width:2px;stroke:url(#radial-gradient);}.cls-3{fill:url(#New_Gradient_Swatch_1);}</style><radialGradient id="radial-gradient" cx="21.32" cy="20.88" r="6.64" gradientUnits="userSpaceOnUse"><stop offset="0" stop-color="#57536c"/><stop offset="0.86" stop-color="#57536c"/><stop offset="1" stop-color="#57536c"/></radialGradient><linearGradient id="New_Gradient_Swatch_1" x1="10.43" y1="62.27" x2="62.61" y2="10.08" gradientUnits="userSpaceOnUse"><stop offset="0" stop-color="#57536c"/><stop offset="1" stop-color="#403d52"/></linearGradient></defs><g id="Layer_1" data-name="Layer 1"><path class="cls-1" d="M72.65,38.07V20.69h5.72V37.85c0,6.34,2.86,9.07,7.84,9.07S94,44.19,94,37.85V20.69h5.63V38.07c0,9-5.06,13.87-13.47,13.87S72.65,47.05,72.65,38.07Z"/><path class="cls-1" d="M127.83,44.37h-15.4l-3,7.13H103.5l13.86-30.81H123L136.9,51.5h-6Zm-1.89-4.49-5.81-13.47-5.77,13.47Z"/><path class="cls-1" d="M169.06,20.69V51.5h-4.71l-17-20.86V51.5h-5.67V20.69h4.71l17,20.86V20.69Z"/><path class="cls-1" d="M184.46,25.53H174.25V20.69h26.14v4.84H190.18v26h-5.72Z"/></g><g id="Layer_3" data-name="Layer 3"><path class="cls-2" d="M27,15.26a13.9,13.9,0,0,0-8,4.34,13.68,13.68,0,0,0-3.32,6.89"/><path class="cls-3" d="M62.47,63.06a.74.74,0,0,1-.31,1.3l-30.25-.53A31.92,31.92,0,0,1,31.91,0c19,0,31.54,17,31.92,31.92.24,9.18-4.17,16.28-7,19.86L51,47.15a1.33,1.33,0,0,0-.76-.27,1.27,1.27,0,0,0-.61.15,23.38,23.38,0,1,0-2.62,2.62,1.4,1.4,0,0,0-.08.53,1.21,1.21,0,0,0,.28.68c2,1.59,4,3.17,6,4.74l0,0,5.16,4.12.09.07Z"/></g></svg>