<svg id="Layer_3" data-name="Layer 3" xmlns="http://www.w3.org/2000/svg" xmlns:xlink="http://www.w3.org/1999/xlink" viewBox="0 0 63.84 64.36"><defs><style>.cls-1{fill:none;stroke-linecap:round;stroke-miterlimit:10;stroke-width:2px;stroke:url(#radial-gradient);}.cls-2{fill:url(#New_Gradient_Swatch_1);}</style><radialGradient id="radial-gradient" cx="21.32" cy="20.88" r="6.64" gradientUnits="userSpaceOnUse"><stop offset="0" stop-color="#57536c"/><stop offset="0.86" stop-color="#57536c"/><stop offset="1" stop-color="#57536c"/></radialGradient><linearGradient id="New_Gradient_Swatch_1" x1="10.43" y1="62.27" x2="62.61" y2="10.08" gradientUnits="userSpaceOnUse"><stop offset="0" stop-color="#57536c"/><stop offset="1" stop-color="#403d52"/></linearGradient></defs><path class="cls-1" d="M27,15.26a13.9,13.9,0,0,0-8,4.34,13.68,13.68,0,0,0-3.32,6.89"/><path class="cls-2" d="M62.47,63.06a.74.74,0,0,1-.31,1.3l-30.25-.53A31.92,31.92,0,0,1,31.91,0c19,0,31.54,17,31.92,31.92.24,9.18-4.17,16.28-7,19.86L51,47.15a1.33,1.33,0,0,0-.76-.27,1.27,1.27,0,0,0-.61.15,23.38,23.38,0,1,0-2.62,2.62,1.4,1.4,0,0,0-.08.53,1.21,1.21,0,0,0,.28.68c2,1.59,4,3.17,6,4.74l0,0,5.16,4.12.09.07Z"/></svg>