<svg id="Layer_2" data-name="Layer 2" xmlns="http://www.w3.org/2000/svg" viewBox="0 0 450 250"><defs><style>.cls-1,.cls-2,.cls-3,.cls-5{fill:#ddd;}.cls-1,.cls-2,.cls-3,.cls-4,.cls-5{stroke:#ddd;}.cls-1{stroke-miterlimit:10;}.cls-1,.cls-2,.cls-3,.cls-4{stroke-width:3px;}.cls-2,.cls-3,.cls-4,.cls-5{stroke-linejoin:round;}.cls-3,.cls-4,.cls-5{stroke-linecap:round;}.cls-4{fill:none;}.cls-5{stroke-width:2px;}</style></defs><path class="cls-1" d="M257.06,195.71c-1.4-.53-10-3.58-18.22,1-4.1,2.29-11.42,8.31-10,15.49,1.37,6.73,9.56,10.12,15.49,10.26,7.58.17,14.85-4.89,18.45-12.84V136l58.94-12.84.36,61.53c-1.34-.65-8.66-4-16.45-.74-5.63,2.36-12.78,8.71-11.43,16.37,1.29,7.32,9.54,11.43,16.08,11.44,8.06,0,15.69-6.21,18.15-15.42q-.3-47.69-.59-95.38l-71.33,15.56Z"/><path class="cls-2" d="M181.63,121a24.92,24.92,0,0,0-15.88-3.58c-8.46,1.12-19.6,7.57-19.4,16.93.18,8.55,9.72,15.44,18.67,15.89s17.94-5.74,21.27-15.45q3.38-34.43,6.73-68.83a8.17,8.17,0,0,1,5.07-1.08c11.83,1.62,19.07,34.37,14.06,51-.42,1.38-1.86,7.32-2.08,7.27-.06,0,.8-1.67,1.93-4.49,7-17.42,3.68-35.11,3.68-35.11a94.4,94.4,0,0,0-13.63-32.23c-1.76-2.63-3.51-4.74-4.55-8.58-1.63-6-.05-11-2.76-12.55a3.78,3.78,0,0,0-3.29-.3,3,3,0,0,0-1.31,1.42Q185.9,76.09,181.63,121Z"/><path class="cls-3" d="M392.67,44.25c-.2,0,.27-4.24.48-5.78,1.15-8.51,6-22.61,11.24-22.6,4.4,0,9.51,10.1,9.46,19.45C413.79,48,404.14,57.5,398.8,62.77c-8.27,8.15-11.48,7-17.86,14.79-3.81,4.68-10.1,12.35-9.19,21.71,1.18,12.1,13.87,25.23,26.38,22.78,9.58-1.87,18.27-12.73,16.12-21.58a14.09,14.09,0,0,0-8.39-9.32c-5-2-11.73-1.28-15.86,3.33-4.42,4.93-4.62,12.82-.13,18.51-.72-.68-7.12-6.95-5.86-15.72a16.31,16.31,0,0,1,5.46-10.12A16.9,16.9,0,0,1,402,83.55c9.29,1,18.62,10.58,18,21.45-.68,11.72-12.52,18-20.52,19.45-14.57,2.69-24.9-8.89-25.84-10-9.4-10.91-6.82-24.36-6.4-26.38a33.52,33.52,0,0,1,7.86-15c4.78-5.62,7.25-5.24,19.32-14.52,8.4-6.47,10.81-9.44,12.39-11.73,2.32-3.37,5.9-8.71,4.8-14.92C411,28.64,409,24,405.86,23.6c-1.47-.19-2.65.63-4,1.6-5.42,3.87-7.2,10.92-8.14,14.61C393.13,42.16,392.81,44.27,392.67,44.25Z"/><path class="cls-4" d="M392.67,44.25,404,141.37a13.66,13.66,0,1,1-27.11,1.33"/><circle class="cls-5" cx="382.81" cy="142.04" r="6.66"/></svg>