<svg id="Layer_1" data-name="Layer 1" xmlns="http://www.w3.org/2000/svg" viewBox="0 0 450 250"><defs><style>.cls-1,.cls-2,.cls-3{fill:none;stroke:#ddd;stroke-miterlimit:10;}.cls-1,.cls-2{stroke-width:5px;}.cls-2,.cls-3{stroke-linecap:round;}.cls-3{stroke-width:2px;}</style></defs><path class="cls-1" d="M152.61,70.56a39,39,0,1,1-77.92,0c0-.27,0-.55,0-.81a36.69,36.69,0,0,1,.76-7l.09-.4A38.89,38.89,0,0,1,80,51c.1-.16.2-.33.29-.5a39,39,0,0,1,72.36,20.08Z"/><path class="cls-2" d="M120.5,53.29a10.6,10.6,0,0,0-12.77.92c-3.79,3.55-3.92,9.52-1.61,12.7,3.37,4.61,10.34,1.17,14.17,5.84,2.81,3.43,3.35,10.51-1.09,14.41-3.81,3.35-10.1,3.31-14.44-.55"/><line class="cls-2" x1="113.64" y1="89.55" x2="113.64" y2="95.19"/><line class="cls-2" x1="113.64" y1="51.63" x2="113.64" y2="45.21"/><path class="cls-1" d="M474.86,30.12v79.21a55,55,0,0,0-15.62,16.75c-.14.24-.28.47-.41.71a55.14,55.14,0,0,0-6.25,16.11c0,.2-.08.37-.12.57a51.6,51.6,0,0,0-1.07,9.92H383.65a7.78,7.78,0,0,1-7.79-7.77V30.12a7.78,7.78,0,0,1,7.79-7.79h83.42A7.79,7.79,0,0,1,474.86,30.12Z"/><rect class="cls-1" x="385.91" y="32.6" width="77.2" height="28.25" rx="3.75"/><rect class="cls-1" x="385.91" y="71.84" width="16.8" height="16.8" rx="1.59"/><rect class="cls-1" x="415.13" y="71.84" width="16.8" height="16.8" rx="1.59"/><rect class="cls-1" x="444.35" y="71.84" width="16.8" height="16.8" rx="1.59"/><rect class="cls-1" x="385.91" y="99.26" width="16.8" height="16.8" rx="1.59"/><rect class="cls-1" x="415.13" y="99.26" width="16.8" height="16.8" rx="1.59"/><rect class="cls-1" x="444.35" y="99.26" width="16.8" height="16.8" rx="1.59"/><rect class="cls-1" x="385.91" y="126.68" width="16.8" height="16.8" rx="1.59"/><rect class="cls-1" x="415.13" y="126.68" width="16.8" height="16.8" rx="1.59"/><path class="cls-1" d="M458.83,126.79a55.14,55.14,0,0,0-6.25,16.11c0,.2-.08.37-.12.57h-5a3.11,3.11,0,0,1-3.11-3.11V129.78a3.12,3.12,0,0,1,3.11-3.11H458A2.74,2.74,0,0,1,458.83,126.79Z"/><path class="cls-2" d="M18.84,203.48c24.82-37,45.33-45.17,59.94-45.19,23.91,0,34.35,21.65,55.45,15.71,18.91-5.33,23.44-26.4,45.83-27.89,8.4-.55,10.57,2.23,17.31,0,12.8-4.22,15.15-17.58,24.68-31.73,2.32-3.44,21-30.52,46.15-34.29,25.79-3.88,42.35,19.19,58.34,10.25,7.17-4,10.32-12.27,11.86-18.91"/><line class="cls-3" x1="20.24" y1="203.8" x2="20.24" y2="230.41"/><line class="cls-3" x1="35.41" y1="182.97" x2="35.41" y2="230.41"/><line class="cls-3" x1="50.57" y1="168.55" x2="50.57" y2="230.41"/><path class="cls-3" d="M65.73,230.41c-.31-23.64-.31-46.64,0-70.91"/><path class="cls-3" d="M323.51,230.41c-.09-46.64-.09-92.64,0-139.58"/><path class="cls-3" d="M308.35,230.41c.07-46.64.07-93.64,0-140.17"/><path class="cls-3" d="M293.18,230.41c.24-48.64.24-98.64,0-147.56"/><path class="cls-3" d="M278,230.41c.4-50.64.4-100.64,0-151.3"/><path class="cls-3" d="M262.86,230.41q-.66-74.46,0-150.14"/><path class="cls-3" d="M247.69,230.41c-.27-47.64-.27-95.64,0-143.16"/><path class="cls-3" d="M232.53,230.41c-.11-43.64-.11-86.64,0-130.25"/><path class="cls-3" d="M217.37,230.41c0-36.64,0-72.64,0-110"/><path class="cls-3" d="M202.2,230.41q.33-43.65,0-87.29"/><path class="cls-3" d="M187,230.41c.38-27.64.38-56.64,0-84.18"/><path class="cls-3" d="M171.88,230.41c-.46-27.64-.46-55.64,0-83.15"/><path class="cls-3" d="M156.71,230.41q-.42-36.61,0-73.22"/><path class="cls-3" d="M141.55,230.41q-.18-30.15,0-60.28"/><path class="cls-3" d="M126.39,230.41q0-27.74,0-55.47"/><path class="cls-3" d="M111.22,230.41q.3-30.63,0-61.26"/><path class="cls-3" d="M96.06,230.41q.54-33.93,0-67.87"/><path class="cls-3" d="M80.9,230.41c-.48-23.64-.48-48.64,0-72.25"/><path class="cls-3" d="M338.67,230.41c-.25-52.64-.25-106.64,0-159.72"/></svg>