<svg xmlns="http://www.w3.org/2000/svg" viewBox="0 0 450 250"><defs><style>.cls-1,.cls-2{fill:none;stroke:#ddd;stroke-linecap:round;stroke-linejoin:round;}.cls-1{stroke-width:5px;}.cls-2{stroke-width:6px;}</style></defs><g id="Layer_1" data-name="Layer 1"><path class="cls-1" d="M454.94,109.37V238c-109.52.28-220.06.28-329.59.28C112.16,232.92,103,222.29,101,209.9c-2-10.63,3-20.37,11.15-28.33a48,48,0,0,1,11.78-7.51c.83-.39,1.67-.75,2.53-1.09a58.65,58.65,0,0,1,12.39-3.41c.89-.16,1.8-.28,2.7-.39a58.56,58.56,0,0,1,30.83,4.5c1.2-16.62,15.29-34.65,33.78-38.5a35.31,35.31,0,0,1,15,.12,36.8,36.8,0,0,1,4.14,1.17,39.8,39.8,0,0,1,19.72,14.93,51,51,0,0,1,26.56-50.5c19.64-10.72,47.45-10.64,65.48,2.71a43.43,43.43,0,0,1,5.06,4.36,42.17,42.17,0,0,1,3.35,3.75,47.5,47.5,0,0,1,9.86,22.7c4.06-7.78,11.68-14,20.55-17.37,10.8-4.17,23.47-4.28,33.88,1.73a33.5,33.5,0,0,1,13.86,15.14c11.81-20.15,23.93-23.74,30.25-24.44Z"/><path class="cls-2" d="M171.32,173l.4.16c-.22-.34.73-.14.67.53A3.14,3.14,0,0,1,171.32,173Z"/></g><g id="Layer_2" data-name="Layer 2"><path class="cls-1" d="M138.86,169.56A58.65,58.65,0,0,0,126.47,173c-.86.34-1.7.7-2.53,1.09L80.22,118.15l11.44-8.94Z"/><polyline class="cls-1" points="80.22 118.16 73.5 97.77 91.66 109.21"/><path class="cls-1" d="M221.2,134.74a31.36,31.36,0,0,0-15-.14L190.11,72l14.07-3.61Z"/><path class="cls-1" d="M204.18,68.4c2.41-4.28,4.85-10.33,2.71-15.71-1.7-4.26-5.33-5.72-11.3-10.46a82.48,82.48,0,0,1-13.79-14,32.8,32.8,0,0,0-5.12,20.46C178,62.82,188.4,70.76,190.11,72"/><path class="cls-1" d="M393.69,43.43l-17.77,70.7a40.36,40.36,0,0,0-20.55,19.62,57.4,57.4,0,0,0-9.86-25.65,46.75,46.75,0,0,0-3.35-4.23l17.36-69Z"/><line class="cls-1" x1="358.28" y1="43.92" x2="365.99" y2="45.86"/><line class="cls-1" x1="355.09" y1="56.59" x2="370.79" y2="60.54"/><line class="cls-1" x1="351.9" y1="69.27" x2="359.62" y2="71.21"/><line class="cls-1" x1="348.71" y1="81.95" x2="364.41" y2="85.9"/><line class="cls-1" x1="345.53" y1="94.63" x2="353.24" y2="96.57"/><line class="cls-1" x1="344.94" y1="107.8" x2="358.04" y2="111.25"/></g></svg>