<svg id="Layer_1" data-name="Layer 1" xmlns="http://www.w3.org/2000/svg" viewBox="0 0 450 250"><defs><style>.cls-1{fill:none;stroke:#ddd;stroke-linecap:round;stroke-linejoin:round;stroke-width:5px;}</style></defs><path class="cls-1" d="M287,206.1V63.23A166.84,166.84,0,0,0,168.66,48.86V191.73A161.75,161.75,0,0,1,287,206.1Z"/><line class="cls-1" x1="168.66" y1="191.73" x2="286.95" y2="206.1"/><path class="cls-1" d="M287,206.09V63.22a166.8,166.8,0,0,1,118.3-14.36V191.73A161.83,161.83,0,0,0,287,206.09Z"/><line class="cls-1" x1="405.26" y1="191.73" x2="286.96" y2="206.09"/><path class="cls-1" d="M181.84,63.1A150.19,150.19,0,0,1,276.2,74.89"/><path class="cls-1" d="M181.84,95.54a150.11,150.11,0,0,1,94.36,11.8"/><path class="cls-1" d="M181.84,78.35A156.36,156.36,0,0,1,247,80.9"/><path class="cls-1" d="M181.84,164.19A150.19,150.19,0,0,1,276.2,176"/><path class="cls-1" d="M181.84,131a166.81,166.81,0,0,1,20.72-2.23,164.34,164.34,0,0,1,26.41,1"/><path class="cls-1" d="M181.84,147.9a127.86,127.86,0,0,1,62.16.64"/><path class="cls-1" d="M393.29,136a150.11,150.11,0,0,0-94.36,11.8"/><path class="cls-1" d="M393.29,168.49a150.19,150.19,0,0,0-94.36,11.79"/><path class="cls-1" d="M393.29,136a150.11,150.11,0,0,0-94.36,11.8"/><path class="cls-1" d="M393.29,168.49a150.19,150.19,0,0,0-94.36,11.79"/><path class="cls-1" d="M362.59,148.45a156.45,156.45,0,0,0-63.66,13.89"/><path class="cls-1" d="M393.29,79.53a150.19,150.19,0,0,0-94.36,11.79"/><path class="cls-1" d="M344.2,106a164.77,164.77,0,0,0-45.27,13.17"/><path class="cls-1" d="M359.73,62.77a128,128,0,0,0-60.8,13"/></svg>