<svg id="Layer_1" data-name="Layer 1" xmlns="http://www.w3.org/2000/svg" viewBox="0 0 450 250"><defs><style>.cls-1,.cls-2{fill:none;stroke:#ddd;stroke-linecap:round;stroke-linejoin:round;stroke-width:5px;}.cls-2{stroke-dasharray:11.95 11.95;}</style></defs><path class="cls-1" d="M185.76,80.89a17.81,17.81,0,0,1-10.15,4.43h-.05a19.38,19.38,0,0,1-7.52-.73,17.92,17.92,0,0,1-9.51-6.79,18.43,18.43,0,0,1,3-24.08A17.36,17.36,0,0,1,168.87,50a18.76,18.76,0,0,1,19.69,7.31A18.4,18.4,0,0,1,185.76,80.89Z"/><path class="cls-1" d="M169.21,62.53a6.68,6.68,0,0,1,9.68,1.28,6.58,6.58,0,0,1-1,8.46,6.69,6.69,0,0,1-9.75-1.12A6.58,6.58,0,0,1,169.21,62.53Z"/><path class="cls-1" d="M222.71,214.79a7.13,7.13,0,0,1-8.38-2.41q-10.59-34.6-21.13-69.23c-1.07-3.52-2.14-7.06-3.24-10.58Q183.42,111,176.82,89.46c-.42-1.37-.85-2.78-1.26-4.15h.05a10.65,10.65,0,0,0,10.15-4.43l3.16,9.66,37.59,115.29A7.2,7.2,0,0,1,222.71,214.79Z"/><line class="cls-1" x1="222.71" y1="214.79" x2="226.91" y2="227.09"/><path class="cls-1" d="M168,84.58c-.68,1.3-1.33,2.6-2,3.91q-29.31,57.12-58.65,114.24a7,7,0,0,1-10.81-8.62L154.19,87.39,159,78.48a10,10,0,0,0,3.39,4.25A9.8,9.8,0,0,0,168,84.58Z"/><line class="cls-1" x1="98.69" y1="203.59" x2="92.36" y2="214.95"/><path class="cls-1" d="M168.87,50Q170.45,36.5,172,23a6,6,0,0,1,5.59-2.5,6.3,6.3,0,0,1,4.54,3.1q-.37,13.83-.74,27.66"/><path class="cls-1" d="M145.77,128.28a53.18,53.18,0,0,0,44.2,4.29"/><path class="cls-1" d="M140.68,138.17a53.61,53.61,0,0,0,52.52,5"/><circle class="cls-1" cx="350.08" cy="96.36" r="65.7"/><path class="cls-1" d="M284.38,96.36c9.25,7.33,32.12,23.27,64,23.82,33.88.58,58.22-16.55,67.4-23.82"/><path class="cls-1" d="M415.78,94.05c-1.23-1-2.69-2.1-4.38-3.32"/><path class="cls-2" d="M401.36,84.25a103.07,103.07,0,0,0-49.58-14.09c-25.63-.44-45.81,9.29-58.08,17.21"/><path class="cls-1" d="M288.76,90.73c-1.71,1.24-3.18,2.37-4.38,3.32"/></svg>