<svg id="Layer_1" data-name="Layer 1" xmlns="http://www.w3.org/2000/svg" viewBox="0 0 450 250"><defs><style>.cls-1,.cls-2,.cls-3{fill:none;stroke:#ddd;stroke-width:5px;}.cls-1,.cls-2{stroke-miterlimit:10;}.cls-2,.cls-3{stroke-linecap:round;}.cls-3{stroke-linejoin:round;}</style></defs><rect class="cls-1" x="273.78" y="190.9" width="23.92" height="43.72" rx="1.31"/><rect class="cls-1" x="319.9" y="163.26" width="23.92" height="71.36" rx="1.31"/><rect class="cls-1" x="366.02" y="127.02" width="23.92" height="107.61" rx="1.31"/><rect class="cls-1" x="412.14" y="83.97" width="23.92" height="150.65" rx="1.31"/><path class="cls-1" d="M354.31,66a41.51,41.51,0,1,1-83,0,8,8,0,0,1,0-.86,39,39,0,0,1,.81-7.46l.09-.43a41.65,41.65,0,0,1,4.69-12.11c.11-.17.21-.35.31-.53A41.52,41.52,0,0,1,354.31,66Z"/><path class="cls-2" d="M320.1,47.63a11.31,11.31,0,0,0-13.61,1c-4,3.78-4.17,10.14-1.71,13.53,3.59,4.91,11,1.25,15.09,6.22,3,3.66,3.57,11.2-1.15,15.35-4.07,3.58-10.77,3.53-15.39-.59"/><line class="cls-2" x1="312.79" y1="86.25" x2="312.79" y2="92.26"/><line class="cls-2" x1="312.79" y1="45.87" x2="312.79" y2="39.02"/><path class="cls-3" d="M221.56,65a23.93,23.93,0,0,0-7.28,5.16,14.07,14.07,0,0,0-1.4,1.62,18.53,18.53,0,0,0-3.1,6l-.12.38c0,.22-.11.44-.14.64a19.77,19.77,0,0,0-.35,4.79c0,.89,0,1.8,0,2.7v0q.72,68.35,1.46,136.69H88.92V84.87A21.05,21.05,0,0,1,94.79,71a20.51,20.51,0,0,1,11.35-5.81q43.12.28,86.88.1Q207.32,65.15,221.56,65Z"/><path class="cls-3" d="M236.06,85.91l-26.86.43v0c0-.9,0-1.81,0-2.7a19.77,19.77,0,0,1,.35-4.79c0-.2.09-.42.14-.64l.12-.38a19,19,0,0,1,4.5-7.59A23.93,23.93,0,0,1,221.56,65a12.31,12.31,0,0,1,5.93,1.08C233.4,68.87,236.74,76.74,236.06,85.91Z"/><rect class="cls-3" x="99.14" y="94.3" width="27.12" height="27.25"/><rect class="cls-3" x="99.14" y="181.5" width="27.12" height="27.25"/><rect class="cls-3" x="99.14" y="137.9" width="27.12" height="27.25"/><line class="cls-3" x1="136.83" y1="94.3" x2="194.84" y2="94.3"/><line class="cls-3" x1="136.83" y1="105.91" x2="165.84" y2="105.91"/><line class="cls-3" x1="181.4" y1="105.91" x2="194.84" y2="105.91"/><line class="cls-3" x1="136.83" y1="118.71" x2="172.67" y2="118.71"/><line class="cls-3" x1="136.83" y1="137.9" x2="158.29" y2="137.9"/><line class="cls-3" x1="136.83" y1="149.51" x2="193.9" y2="149.51"/><line class="cls-3" x1="136.83" y1="161.6" x2="183.99" y2="161.6"/><line class="cls-3" x1="136.83" y1="181.5" x2="189.18" y2="181.5"/><line class="cls-3" x1="136.83" y1="191.93" x2="144.62" y2="191.93"/><line class="cls-3" x1="136.83" y1="206.85" x2="169.37" y2="206.85"/><line class="cls-3" x1="177.63" y1="191.93" x2="189.18" y2="191.93"/></svg>