<svg id="Layer_1" data-name="Layer 1" xmlns="http://www.w3.org/2000/svg" viewBox="0 0 450 250"><defs><style>.cls-1,.cls-2,.cls-3{fill:none;stroke:#ddd;stroke-miterlimit:10;}.cls-1{stroke-width:5px;}.cls-2{stroke-width:4px;}.cls-3{stroke-width:3px;}</style></defs><path class="cls-1" d="M70.09,97.55c71.32,38.74,142.65-41.56,214-2.82V191c-71.33-38.74-142.66,41.55-214,2.81Z"/><path class="cls-2" d="M71,113.92c71,37.63,142.08-41.87,213.12-3.28"/><path class="cls-2" d="M70.37,179.81c71.43,38.47,142.85-42.09,214.27-2.66"/><path class="cls-2" d="M160.53,173.39c-25,6.78-50,11.31-75,3.32a9.09,9.09,0,0,1-5.87-8V133.29c0-3.25,2.63-4.8,5.87-3.76,25,8,50,3.46,75-3.32,3.24-.88,5.87,1,5.87,4.24v35.44A8.3,8.3,0,0,1,160.53,173.39Z"/><path class="cls-2" d="M83,111.52a90.91,90.91,0,0,0,29,5.09"/><path class="cls-2" d="M122.61,116.29a179.9,179.9,0,0,0,29-4.93"/><path class="cls-2" d="M162.21,108.62c9.67-2.66,19.34-5.63,29-8.3"/><path class="cls-2" d="M201.81,97.53a183.65,183.65,0,0,1,29-5"/><path class="cls-2" d="M241.41,92.1a91.36,91.36,0,0,1,29,4.84"/><path class="cls-2" d="M83,192.52a90.62,90.62,0,0,0,29,5.08"/><path class="cls-2" d="M122.61,197.28a178.78,178.78,0,0,0,29-4.92"/><path class="cls-2" d="M162.21,189.62c9.67-2.67,19.34-5.63,29-8.31"/><path class="cls-2" d="M201.81,178.53a182.51,182.51,0,0,1,29-5.05"/><path class="cls-2" d="M241.41,173.1a91.08,91.08,0,0,1,29,4.84"/><path class="cls-2" d="M263.83,159.28c-25-6.44-50-1-75,6-3.25.92-5.88-.95-5.88-4.19V125.66a8.4,8.4,0,0,1,5.88-7.55c25-7,50-12.45,75-6a8.38,8.38,0,0,1,5.88,7.61v35.44C269.71,158.38,267.08,160.11,263.83,159.28Z"/><path class="cls-1" d="M283.48,86c0,12.07,25.12,21.86,56.11,21.86S395.7,98,395.7,86,370.58,64.1,339.59,64.1,283.48,73.89,283.48,86Z"/><path class="cls-1" d="M283.48,86l.2,104.68a114.27,114.27,0,0,0,112.79.09q-.39-52.38-.77-104.77c0,12.07-25.12,21.86-56.11,21.86S283.48,98,283.48,86Z"/><ellipse class="cls-3" cx="339.59" cy="85.96" rx="4.78" ry="1.44"/><path class="cls-1" d="M283.53,95.28v95.59a117.89,117.89,0,0,0,112.15,0V95.28A117.89,117.89,0,0,1,283.53,95.28Z"/><path class="cls-2" d="M395.26,111.3a117.89,117.89,0,0,1-111.73-.22"/><path class="cls-2" d="M395.54,176.89a117.89,117.89,0,0,1-112.29-.22"/><path class="cls-2" d="M361.19,139.27v33.64a5.11,5.11,0,0,0,6.57,5.19,117.44,117.44,0,0,0,27.92-10.78V120.47a118.3,118.3,0,0,1-27.92,10.78A8.73,8.73,0,0,0,361.19,139.27Z"/><path class="cls-2" d="M389.26,106.65a116.82,116.82,0,0,1-14.87,5.72"/><path class="cls-2" d="M368.83,113.94a117.11,117.11,0,0,1-15.48,2.88"/><path class="cls-2" d="M347.64,117.37a118.9,118.9,0,0,1-15.68,0"/><path class="cls-2" d="M326.25,116.89a118.75,118.75,0,0,1-15.49-2.83"/><path class="cls-2" d="M305.2,112.51a116.8,116.8,0,0,1-14.89-5.67"/><path class="cls-2" d="M389.26,187.09a118.34,118.34,0,0,1-14.87,5.72"/><path class="cls-2" d="M368.83,194.38a117.08,117.08,0,0,1-15.48,2.87"/><path class="cls-2" d="M347.64,197.81a118.9,118.9,0,0,1-15.68,0"/><path class="cls-2" d="M326.25,197.32a117.08,117.08,0,0,1-15.49-2.82"/><path class="cls-2" d="M305.2,193a116.8,116.8,0,0,1-14.89-5.67"/><path class="cls-2" d="M283.78,120.6v46.86a117.74,117.74,0,0,0,54,14,6.69,6.69,0,0,0,6.69-6.7V141.16a6.62,6.62,0,0,0-6.69-6.52A117.74,117.74,0,0,1,283.78,120.6Z"/></svg>