<svg id="Layer_1" data-name="Layer 1" xmlns="http://www.w3.org/2000/svg" viewBox="0 0 450 250"><defs><style>.cls-1{fill:none;stroke:#ddd;stroke-linecap:round;stroke-linejoin:round;stroke-width:5px;}</style></defs><rect class="cls-1" x="150.42" y="77.26" width="14.3" height="130.11" transform="translate(18.44 -18.08) rotate(6.97)"/><path class="cls-1" d="M142.58,206c-.14.33-2.77,6.67.7,11a7.52,7.52,0,0,0,5,3,7.27,7.27,0,0,0,4.84-1.37c3-2.08,4.35-6.35,3.69-10.94"/><polyline class="cls-1" points="158.38 76.87 167.89 58 172.57 78.61"/><path class="cls-1" d="M368.08,46.81a26.15,26.15,0,0,0-7.95,5.64,17.72,17.72,0,0,0-1.53,1.76,20.57,20.57,0,0,0-3.39,6.53l-.12.41c-.06.24-.12.48-.16.71a21.7,21.7,0,0,0-.39,5.23c0,1,0,2,0,2.94v.06q.8,74.66,1.6,149.3h-133V68.49a23,23,0,0,1,6.42-15.21A22.33,22.33,0,0,1,242,46.94q47.13.3,94.91.1Q352.53,46.95,368.08,46.81Z"/><path class="cls-1" d="M383.92,69.62c-9.79.17-19.55.31-29.34.47V70c0-1,0-2,0-2.94a21.7,21.7,0,0,1,.39-5.23c0-.23.1-.47.16-.71l.12-.41a20.57,20.57,0,0,1,3.39-6.53c.48-.62,1-1.21,1.53-1.76a26.15,26.15,0,0,1,7.95-5.64A13.49,13.49,0,0,1,374.56,48C381,51,384.67,59.61,383.92,69.62Z"/><line class="cls-1" x1="236.72" y1="78.78" x2="338.9" y2="78.78"/><line class="cls-1" x1="236.72" y1="91.47" x2="287.81" y2="91.47"/><line class="cls-1" x1="315.22" y1="91.47" x2="338.9" y2="91.47"/><line class="cls-1" x1="236.72" y1="105.44" x2="299.85" y2="105.44"/><line class="cls-1" x1="236.72" y1="126.41" x2="274.52" y2="126.41"/><line class="cls-1" x1="236.72" y1="139.09" x2="337.23" y2="139.09"/><line class="cls-1" x1="236.72" y1="152.29" x2="319.79" y2="152.29"/><line class="cls-1" x1="236.72" y1="174.03" x2="328.93" y2="174.03"/><line class="cls-1" x1="236.72" y1="185.42" x2="250.42" y2="185.42"/><line class="cls-1" x1="236.72" y1="201.72" x2="294.04" y2="201.72"/><line class="cls-1" x1="308.57" y1="185.42" x2="328.93" y2="185.42"/></svg>