<svg id="Layer_1" data-name="Layer 1" xmlns="http://www.w3.org/2000/svg" viewBox="0 0 97.43 76.78"><defs><style>.cls-1,.cls-2{fill:none;stroke:#403d52;stroke-miterlimit:10;}.cls-1{stroke-width:3px;}.cls-2{stroke-linecap:round;stroke-width:2px;}</style></defs><path class="cls-1" d="M23.36,86.8V52.58C11.41,51.58,2.12,61.41,2.82,71,3.47,79.87,12.49,87.85,23.36,86.8Z" transform="translate(-1.29 -11.61)"/><path class="cls-1" d="M76.73,52.67V86.75c11.89,1,21.14-8.8,20.45-18.38C96.53,59.57,87.55,51.63,76.73,52.67Z" transform="translate(-1.29 -11.61)"/><line class="cls-2" x1="25.74" y1="47.94" x2="25.74" y2="69.55"/><line class="cls-2" x1="29.26" y1="51.71" x2="29.26" y2="65.79"/><line class="cls-2" x1="32.78" y1="50.45" x2="32.78" y2="67.05"/><line class="cls-2" x1="36.3" y1="48.62" x2="36.3" y2="68.88"/><line class="cls-2" x1="39.81" y1="55.28" x2="39.81" y2="62.22"/><line class="cls-2" x1="43.33" y1="57.59" x2="43.33" y2="59.91"/><line class="cls-2" x1="46.85" y1="49.87" x2="46.85" y2="67.62"/><line class="cls-2" x1="50.37" y1="50.45" x2="50.37" y2="67.05"/><line class="cls-2" x1="53.88" y1="55.28" x2="53.88" y2="62.22"/><line class="cls-2" x1="57.4" y1="52.57" x2="57.4" y2="64.92"/><line class="cls-2" x1="60.92" y1="47.94" x2="60.92" y2="69.55"/><line class="cls-2" x1="64.44" y1="56.05" x2="64.44" y2="61.45"/><line class="cls-2" x1="67.95" y1="51.71" x2="67.95" y2="65.79"/><line class="cls-2" x1="71.47" y1="48.62" x2="71.47" y2="68.88"/><path class="cls-1" d="M12.92,55.06A39.22,39.22,0,0,1,18.35,31.4,38.55,38.55,0,0,1,50.6,13.11C66.67,13,76.84,23.19,78.33,24.74c12.21,12.71,10.6,28.85,10.35,31" transform="translate(-1.29 -11.61)"/><path class="cls-1" d="M18.64,51.64c0-17.92,14.43-32.54,31.69-32.85,18-.32,33.37,15,32.85,33.72" transform="translate(-1.29 -11.61)"/></svg>