<svg id="Layer_1" data-name="Layer 1" xmlns="http://www.w3.org/2000/svg" viewBox="0 0 95.08 95.83"><defs><style>.cls-1,.cls-2{fill:none;stroke:#403d52;stroke-miterlimit:10;stroke-width:3px;}.cls-2{stroke-linecap:round;}</style></defs><path class="cls-1" d="M53.05,7.64V46.87a27.23,27.23,0,0,0-7.74,8.29l-.2.35a27.32,27.32,0,0,0-3.1,8c0,.1,0,.18,0,.28a25.74,25.74,0,0,0-.54,4.92H7.88A3.86,3.86,0,0,1,4,64.84V7.64A3.85,3.85,0,0,1,7.88,3.79H49.19A3.85,3.85,0,0,1,53.05,7.64Z" transform="translate(-2.52 -2.29)"/><rect class="cls-1" x="6.48" y="6.59" width="38.22" height="13.99" rx="3.75"/><rect class="cls-1" x="6.48" y="26.02" width="8.32" height="8.32" rx="1.59"/><rect class="cls-1" x="20.95" y="26.02" width="8.32" height="8.32" rx="1.59"/><rect class="cls-1" x="35.42" y="26.02" width="8.32" height="8.32" rx="1.59"/><rect class="cls-1" x="6.48" y="39.59" width="8.32" height="8.32" rx="1.59"/><rect class="cls-1" x="20.95" y="39.59" width="8.32" height="8.32" rx="1.59"/><rect class="cls-1" x="35.42" y="39.59" width="8.32" height="8.32" rx="1.59"/><rect class="cls-1" x="6.48" y="53.17" width="8.32" height="8.32" rx="1.59"/><rect class="cls-1" x="20.95" y="53.17" width="8.32" height="8.32" rx="1.59"/><path class="cls-1" d="M45.11,55.51a27.32,27.32,0,0,0-3.1,8c0,.1,0,.18,0,.28H39.48a1.54,1.54,0,0,1-1.54-1.54V57a1.55,1.55,0,0,1,1.54-1.55h5.23A1.39,1.39,0,0,1,45.11,55.51Z" transform="translate(-2.52 -2.29)"/><path class="cls-1" d="M96.11,69.26a27.36,27.36,0,0,1-54.71,0,5.24,5.24,0,0,1,0-.57A25.74,25.74,0,0,1,42,63.77c0-.1,0-.18,0-.28a27.32,27.32,0,0,1,3.1-8l.2-.35a27.36,27.36,0,0,1,50.8,14.1Z" transform="translate(-2.52 -2.29)"/><path class="cls-2" d="M73.56,57.13a7.44,7.44,0,0,0-9,.65,7.15,7.15,0,0,0-1.13,8.91c2.36,3.24,7.25.82,10,4.1,2,2.41,2.35,7.38-.77,10.12a7.73,7.73,0,0,1-10.13-.39" transform="translate(-2.52 -2.29)"/><line class="cls-2" x1="66.23" y1="80.3" x2="66.23" y2="84.26"/><line class="cls-2" x1="66.23" y1="53.68" x2="66.23" y2="49.17"/></svg>