<svg id="Layer_1" data-name="Layer 1" xmlns="http://www.w3.org/2000/svg" viewBox="0 0 85.71 99.83"><defs><style>.cls-1,.cls-2,.cls-3,.cls-4{fill:none;stroke:#403d52;}.cls-1,.cls-2,.cls-3{stroke-miterlimit:10;}.cls-1,.cls-3,.cls-4{stroke-width:3px;}.cls-2,.cls-3{stroke-linecap:round;}.cls-2{stroke-width:2px;}.cls-4{stroke-linejoin:round;}</style></defs><path class="cls-1" d="M18.22,41.3v42a2.61,2.61,0,1,1-5.22,0v-42a12.6,12.6,0,0,0,5.21-.16A.86.86,0,0,1,18.22,41.3Z" transform="translate(-6.9 -0.18)"/><path class="cls-1" d="M23,38.28a8.45,8.45,0,0,1-4.8,2.86A12.6,12.6,0,0,1,13,41.3,5.82,5.82,0,0,1,8.92,39c-1.31-2.25,0-6.44,2.41-8.57,1.77-1.56,3.38-1.37,4.94-3.28A8.28,8.28,0,0,0,18,22.26C24.52,27,25.85,34.53,23,38.28Z" transform="translate(-6.9 -0.18)"/><path class="cls-2" d="M15.4,37.6a6.35,6.35,0,0,0,3.28-1.21,6.5,6.5,0,0,0,2.09-2.63" transform="translate(-6.9 -0.18)"/><rect class="cls-1" x="26.06" y="13.64" width="58.16" height="58.16" rx="2.9"/><line class="cls-3" x1="74.88" y1="98.33" x2="63.77" y2="72.94"/><line class="cls-3" x1="33.68" y1="97.89" x2="44.79" y2="72.5"/><line class="cls-3" x1="55.14" y1="71.79" x2="55.14" y2="92.51"/><line class="cls-3" x1="55.14" y1="13.64" x2="55.14" y2="1.5"/><line class="cls-3" x1="55.14" y1="7.57" x2="49.64" y2="13.64"/><line class="cls-3" x1="55.2" y1="7.57" x2="60.7" y2="13.64"/><path class="cls-4" d="M43.32,60l36.83-.42a6.77,6.77,0,0,0,4-6.65,6.84,6.84,0,0,0-5.21-6A7.37,7.37,0,0,0,73,48.16,8.66,8.66,0,0,0,56.1,44.87,6.45,6.45,0,0,0,50.89,41c-3.51-.28-5.61,2.83-5.94,3.32a8.14,8.14,0,0,0-1.12,6.21,8.11,8.11,0,0,0-1.52.22A5.44,5.44,0,0,0,38.61,53a4.84,4.84,0,0,0-.41,3.53A5.33,5.33,0,0,0,43.32,60Z" transform="translate(-6.9 -0.18)"/></svg>