<svg id="Layer_1" data-name="Layer 1" xmlns="http://www.w3.org/2000/svg" viewBox="0 0 95.55 67.76"><defs><style>.cls-1,.cls-2{fill:none;stroke:#403d52;stroke-linecap:round;stroke-linejoin:round;}.cls-1{stroke-width:3px;}.cls-2{stroke-width:2px;}</style></defs><polygon class="cls-1" points="94.05 20.63 47.78 41.7 1.5 20.63 47.78 1.5 94.05 20.63"/><path class="cls-1" d="M85.16,46.75v28a56.32,56.32,0,0,1-35,12.53,54.18,54.18,0,0,1-15.38-2.16V79.65l-4-3.1-4.44,3.12,0,2.06A45.06,45.06,0,0,1,19.19,78a44,44,0,0,1-4.35-3.19v-28L50,62.76Z" transform="translate(-2.22 -21.06)"/><path class="cls-2" d="M48.43,39.19a2,2,0,0,1,3.26,2.28,2.1,2.1,0,0,1-3.16.33A2,2,0,0,1,48.43,39.19Z" transform="translate(-2.22 -21.06)"/><line class="cls-2" x1="45.78" y1="21.31" x2="28.55" y2="32.94"/><line class="cls-2" x1="28.55" y1="32.94" x2="28.55" y2="55.49"/><polygon class="cls-2" points="32.52 58.58 32.52 65.36 24.58 65.36 24.58 58.67 28.55 55.49 32.52 58.58"/></svg>