<svg id="Layer_1" data-name="Layer 1" xmlns="http://www.w3.org/2000/svg" viewBox="0 0 93.56 94.59"><defs><style>.cls-1{fill:none;stroke:#403d52;stroke-linecap:round;stroke-linejoin:round;stroke-width:3px;}</style></defs><path class="cls-1" d="M94.08,93.59a3.72,3.72,0,0,1-2,.7L4.72,93.8V28.58c.36,0,15.33-.06,32.33,0l-18,41.91a2.62,2.62,0,0,0,4.34,2.86l18.1-44.76h4.07q3.19,7.85,6.38,15.7c.53,1.28,1.05,2.57,1.57,3.85q5.13,12.6,10.25,25.21a2.62,2.62,0,0,0,4.34-2.86l-18-41.9,35.78,0V86.7a6.85,6.85,0,0,1,6.37-.93C95.6,87.2,96.09,92,94.08,93.59Z" transform="translate(-3.22 -1.2)"/><path class="cls-1" d="M95.28,89.3V25.09a3.74,3.74,0,0,0-1.45-1.65,5.68,5.68,0,0,0-5.56.27,4.83,4.83,0,0,0-2.33,4.87" transform="translate(-3.22 -1.2)"/><path class="cls-1" d="M48.65,25A6.7,6.7,0,0,1,45,27h0a7.34,7.34,0,0,1-2.84,0,6.73,6.73,0,0,1-3.79-2.22,6.93,6.93,0,0,1,.31-9.12A6.49,6.49,0,0,1,41.28,14,7.06,7.06,0,0,1,48.9,16.1,6.92,6.92,0,0,1,48.65,25Z" transform="translate(-3.22 -1.2)"/><path class="cls-1" d="M42.57,19.42a1.43,1.43,0,1,1-.07,1.91A1.45,1.45,0,0,1,42.57,19.42Z" transform="translate(-3.22 -1.2)"/><path class="cls-1" d="M67,73.92a2.69,2.69,0,0,1-3.22-.62Q58.66,60.7,53.54,48.09c-.52-1.28-1-2.57-1.57-3.85q-3.18-7.85-6.38-15.7L45,27h0a4,4,0,0,0,3.65-2l1.51,3.51,18,41.9A2.7,2.7,0,0,1,67,73.92Z" transform="translate(-3.22 -1.2)"/><line class="cls-1" x1="63.79" y1="72.72" x2="65.78" y2="77.18"/><path class="cls-1" d="M42.14,27l-.62,1.53L23.42,73.3a2.62,2.62,0,0,1-4.34-2.86l18-41.91,1.5-3.5A3.74,3.74,0,0,0,40,26.51,3.68,3.68,0,0,0,42.14,27Z" transform="translate(-3.22 -1.2)"/><line class="cls-1" x1="16.97" y1="72.72" x2="14.99" y2="77.18"/><path class="cls-1" d="M41.28,14l.28-10.2a2.26,2.26,0,0,1,2-1.13,2.36,2.36,0,0,1,1.81,1L46,14.09" transform="translate(-3.22 -1.2)"/><path class="cls-1" d="M35.28,44.13A20,20,0,0,0,52,44.24" transform="translate(-3.22 -1.2)"/><path class="cls-1" d="M33.7,48a20.19,20.19,0,0,0,19.84.09" transform="translate(-3.22 -1.2)"/></svg>