<svg id="Layer_1" data-name="Layer 1" xmlns="http://www.w3.org/2000/svg" viewBox="0 0 93.04 95.04"><defs><style>.cls-1,.cls-2,.cls-3{fill:none;stroke:#403d52;}.cls-1{stroke-miterlimit:10;}.cls-1,.cls-2{stroke-width:3px;}.cls-2,.cls-3{stroke-linecap:round;stroke-linejoin:round;}.cls-3{stroke-width:2px;}</style></defs><path class="cls-1" d="M75.11,76H13.7c-3.44,0-6.23-2.48-6.23-5.54V34.18c0-3.07,2.79-5.55,6.23-5.55H75.11c3.44,0,6.23,2.48,6.23,5.55V70.47C81.34,73.53,78.55,76,75.11,76Z" transform="translate(-5.97 -3.84)"/><polygon class="cls-2" points="91.54 35.66 91.54 59.45 75.46 51.9 75.46 43.1 91.54 35.66"/><line class="cls-3" x1="17.79" y1="37.06" x2="44.82" y2="37.06"/><line class="cls-3" x1="10.5" y1="57.8" x2="25.08" y2="57.8"/><line class="cls-3" x1="34.45" y1="57.8" x2="63.97" y2="57.8"/><ellipse class="cls-2" cx="22.23" cy="13.15" rx="11.82" ry="11.65"/><ellipse class="cls-2" cx="55.06" cy="13.15" rx="11.82" ry="11.65"/><line class="cls-2" x1="25.08" y1="72.68" x2="11.53" y2="92.62"/><line class="cls-2" x1="48.43" y1="72.17" x2="58.42" y2="93.54"/></svg>