<svg id="Layer_1" data-name="Layer 1" xmlns="http://www.w3.org/2000/svg" viewBox="0 0 83.63 80.65"><defs><style>.cls-1,.cls-3,.cls-4{fill:none;stroke:#403d52;stroke-width:3px;}.cls-1,.cls-3{stroke-linejoin:bevel;}.cls-2{fill:#403d52;}.cls-3{stroke-linecap:round;}.cls-4{stroke-linejoin:round;}</style></defs><line class="cls-1" x1="56.65" y1="47.72" x2="47.46" y2="69.3"/><path class="cls-1" d="M53.78,62.66H88.63" transform="translate(-12.95 -7.79)"/><path class="cls-1" d="M55.31,85.64A37.92,37.92,0,0,0,80,63.3" transform="translate(-12.95 -7.79)"/><line class="cls-1" x1="49.37" y1="64.83" x2="70.95" y2="76.45"/><polyline class="cls-1" points="44.66 30.84 58.7 0.63 71.85 30.84"/><path class="cls-1" d="M64.63,25.61h13.6" transform="translate(-12.95 -7.79)"/><path class="cls-2" d="M56.25,38,59,39.26H55.66Z" transform="translate(-12.95 -7.79)"/><path class="cls-2" d="M86.13,37.94l-2.72,1.28h3.32Z" transform="translate(-12.95 -7.79)"/><line class="cls-3" x1="32.98" y1="40.57" x2="82.13" y2="40.57"/><rect class="cls-4" x="1.58" y="16.38" width="9.06" height="55.66"/><polygon class="cls-4" points="6.11 5.28 10.64 16.38 1.58 16.38 6.11 5.28"/><path class="cls-4" d="M18.74,86.94a4.2,4.2,0,0,0,2.78-1.23c2.25-2,2.11-5.27,2.08-5.88H14.53c0,.39-.54,4.23,1.85,6.15A3.84,3.84,0,0,0,18.74,86.94Z" transform="translate(-12.95 -7.79)"/></svg>